# xmcd
#
# Track frame offsets:
#	300
#	28069
#	55494
#	83161
#	109502
#	141787
#	165962
#	198188
#	223487
#	251670
#	279268
#
# Disc length: 4142 seconds
#
# Revision: 1
# Processed by: cddbd v1.5.2PL0 Copyright (c) Steve Scherf et al.
# Submitted via: audiograbber 1.83.01
#
DISCID=9b102a0b
DTITLE=CD Pool - Club January 2011 CD2
DYEAR=2011
DGENRE=Dance
TTITLE0=Laidback Luke Ft Jonathan Mendelsohn - Timebomb (Swanky Tunes Remix)
TTITLE1=DJ Sava Ft Raluka - I Like (The Trumpet)(Treitl Hammond Remix)
TTITLE2=iTod, Junior, J.J. and Ted Ned Nilsson - Hear Me Say (Original Mix)
TTITLE3=Kurtis Mantronik - Get Down (Extended Mix)
TTITLE4=Clive Mead - Games (Nick Hook Remix)
TTITLE5=Milk and Sugar Vs Vaya Con Dios - Hey (Nah Neh Nah)(Dub Mix)
TTITLE6=Nathan C - Feelings (Original Mix)
TTITLE7=Dean Anthony - TechOne (Original Mix)
TTITLE8=Danny Vice - Sample's Salad (Original Farfasound Studio Rework)
TTITLE9=William Naraine - If I Could Fall (Vincenzo Callea Remix)
TTITLE10=Scott Wozniak - Wasted (Club Mix)
EXTD=
EXTT0=
EXTT1=
EXTT2=
EXTT3=
EXTT4=
EXTT5=
EXTT6=
EXTT7=
EXTT8=
EXTT9=
EXTT10=
PLAYORDER=
